<svg version="1.1" viewBox="0.0 0.0 480.0 480.0" fill="none" stroke="none" stroke-linecap="square" stroke-miterlimit="10" xmlns:xlink="http://www.w3.org/1999/xlink" xmlns="http://www.w3.org/2000/svg"><clipPath id="p.0"><path d="m0 0l480.0 0l0 480.0l-480.0 0l0 -480.0z" clip-rule="nonzero"/></clipPath><g clip-path="url(#p.0)"><path fill="#000000" fill-opacity="0.0" d="m0 0l480.0 0l0 480.0l-480.0 0z" fill-rule="evenodd"/><path fill="#2f4755" d="m96.33077 327.73312l2.006981 -177.39552l139.07272 -84.92536l146.25887 86.856316l-2.006958 177.39554l-139.07272 84.925354z" fill-rule="evenodd"/><path stroke="#2f4755" stroke-width="24.0" stroke-linejoin="round" stroke-linecap="butt" d="m96.33077 327.73312l2.006981 -177.39552l139.07272 -84.92536l146.25887 86.856316l-2.006958 177.39554l-139.07272 84.925354z" fill-rule="evenodd"/><path fill="#fdf8ee" d="m191.23953 269.35217l0.6662445 -59.140915l46.69905 -28.521301l48.76068 28.953537l-0.66622925 59.1409l-46.699036 28.521301z" fill-rule="evenodd"/><path fill="#000000" fill-opacity="0.0" d="m191.90578 210.21126l48.125977 29.35434" fill-rule="evenodd"/><path stroke="#2f4755" stroke-width="8.0" stroke-linejoin="round" stroke-linecap="butt" d="m191.90578 210.21126l48.125977 29.35434" fill-rule="evenodd"/><path fill="#000000" fill-opacity="0.0" d="m287.3655 210.6435l-48.15747 29.417328" fill-rule="evenodd"/><path stroke="#2f4755" stroke-width="8.0" stroke-linejoin="round" stroke-linecap="butt" d="m287.3655 210.6435l-48.15747 29.417328" fill-rule="evenodd"/><path fill="#fdf8ee" d="m239.90555 93.46486l-1.230484 59.456467l-46.64354 28.480545l1.230484 -59.456467z" fill-rule="evenodd"/><path stroke="#fdf8ee" stroke-width="2.0" stroke-linejoin="round" stroke-linecap="butt" d="m239.90555 93.46486l-1.230484 59.456467l-46.64354 28.480545l1.230484 -59.456467z" fill-rule="evenodd"/><path fill="#fdf8ee" d="m240.07649 93.46486l1.230484 59.456467l46.643524 28.480545l-1.2304688 -59.456467z" fill-rule="evenodd"/><path stroke="#fdf8ee" stroke-width="2.0" stroke-linejoin="round" stroke-linecap="butt" d="m240.07649 93.46486l1.230484 59.456467l46.643524 28.480545l-1.2304688 -59.456467z" fill-rule="evenodd"/><path fill="#fdf8ee" d="m311.39804 139.57983l1.2304688 59.45645l46.643555 28.480545l-1.2304993 -59.45645z" fill-rule="evenodd"/><path stroke="#fdf8ee" stroke-width="2.0" stroke-linejoin="round" stroke-linecap="butt" d="m311.39804 139.57983l1.2304688 59.45645l46.643555 28.480545l-1.2304993 -59.45645z" fill-rule="evenodd"/><path fill="#fdf8ee" d="m191.86002 330.26596l0.6662445 -59.1409l46.69905 -28.521301l48.76068 28.953552l-0.66622925 59.1409l-46.699036 28.521301z" fill-rule="evenodd"/><path fill="#000000" fill-opacity="0.0" d="m241.36131 238.02252l1.2283478 176.56693" fill-rule="evenodd"/><path stroke="#2f4755" stroke-width="8.0" stroke-linejoin="round" stroke-linecap="butt" d="m241.36131 238.02252l1.2283478 176.56693" fill-rule="evenodd"/><path fill="#fdf8ee" d="m168.05122 139.57983l-1.230484 59.45645l-46.643524 28.480545l1.230484 -59.45645z" fill-rule="evenodd"/><path stroke="#fdf8ee" stroke-width="2.0" stroke-linejoin="round" stroke-linecap="butt" d="m168.05122 139.57983l-1.230484 59.45645l-46.643524 28.480545l1.230484 -59.45645z" fill-rule="evenodd"/><path fill="#000000" fill-opacity="0.0" d="m176.8781 260.55652l62.456696 38.141724" fill-rule="evenodd"/><path stroke="#2f4755" stroke-width="8.0" stroke-linejoin="round" stroke-linecap="butt" d="m176.8781 260.55652l62.456696 38.141724" fill-rule="evenodd"/><path fill="#000000" fill-opacity="0.0" d="m315.1357 252.43689l-75.9055 46.362213" fill-rule="evenodd"/><path stroke="#2f4755" stroke-width="8.0" stroke-linejoin="round" stroke-linecap="butt" d="m315.1357 252.43689l-75.9055 46.362213" fill-rule="evenodd"/><path fill="#000000" fill-opacity="0.0" d="m237.40945 97.8294l0 56.62992" fill-rule="evenodd"/><path stroke="#fdf8ee" stroke-width="12.0" stroke-linejoin="round" stroke-linecap="butt" d="m237.40945 97.8294l0 56.62992" fill-rule="evenodd"/></g></svg>